<?xml version="1.0" encoding="utf-8" standalone="no"?>
<!DOCTYPE svg PUBLIC "-//W3C//DTD SVG 1.1//EN" "http://www.w3.org/Graphics/SVG/1.1/DTD/svg11.dtd">
<svg version="1.1" class="svg-plot" xmlns="http://www.w3.org/2000/svg" width="310.1pt" height="191pt" viewBox="-52.7 -15 310.1 191" preserveAspectRatio="xMidYMid"><rect x="-42.7" y="-5" width="290.1" height="171" class="svg-plot-bg"/><rect x="0" y="0" width="240" height="130" class="svg-plot-axis"/><line x1="157.895" x2="157.895" y1="0" y2="130" class="svg-plot-major"/><line x1="0" x2="0" y1="0" y2="130" class="svg-plot-minor"/><line x1="22.1053" x2="22.1053" y1="0" y2="130" class="svg-plot-minor"/><line x1="44.2105" x2="44.2105" y1="0" y2="130" class="svg-plot-minor"/><line x1="66.3158" x2="66.3158" y1="0" y2="130" class="svg-plot-minor"/><line x1="88.4211" x2="88.4211" y1="0" y2="130" class="svg-plot-minor"/><line x1="110.526" x2="110.526" y1="0" y2="130" class="svg-plot-minor"/><line x1="132.632" x2="132.632" y1="0" y2="130" class="svg-plot-minor"/><line x1="154.737" x2="154.737" y1="0" y2="130" class="svg-plot-minor"/><line x1="176.842" x2="176.842" y1="0" y2="130" class="svg-plot-minor"/><line x1="198.947" x2="198.947" y1="0" y2="130" class="svg-plot-minor"/><line x1="221.053" x2="221.053" y1="0" y2="130" class="svg-plot-minor"/><line x1="240" x2="240" y1="0" y2="130" class="svg-plot-minor"/><line x1="0" x2="240" y1="130" y2="130" class="svg-plot-minor"/><line x1="0" x2="240" y1="112.016" y2="112.016" class="svg-plot-minor"/><line x1="0" x2="240" y1="94.0316" y2="94.0316" class="svg-plot-minor"/><line x1="0" x2="240" y1="76.0474" y2="76.0474" class="svg-plot-minor"/><line x1="0" x2="240" y1="58.0632" y2="58.0632" class="svg-plot-minor"/><line x1="0" x2="240" y1="40.0791" y2="40.0791" class="svg-plot-minor"/><line x1="0" x2="240" y1="22.0949" y2="22.0949" class="svg-plot-minor"/><line x1="0" x2="240" y1="4.11067" y2="4.11067" class="svg-plot-minor"/><line x1="0" x2="240" y1="0" y2="0" class="svg-plot-minor"/><clipPath id="clip0"><rect x="-0.75" y="-0.75" width="241.5" height="131.5"/></clipPath><g clip-path="url(#clip0)"><path class="svg-plot-line svg-plot-s0 svg-plot-d0" d="M 0 1.53 240 4.85"/><path class="svg-plot-line svg-plot-s1 svg-plot-d1" d=""/><path class="svg-plot-line svg-plot-s0 svg-plot-d0" d=""/></g><g><line x1="157.895" x2="157.895" y1="130" y2="135" class="svg-plot-tick"/><line x1="0" x2="0" y1="130" y2="135" class="svg-plot-tick"/><line x1="22.1053" x2="22.1053" y1="130" y2="135" class="svg-plot-tick"/><line x1="44.2105" x2="44.2105" y1="130" y2="135" class="svg-plot-tick"/><line x1="66.3158" x2="66.3158" y1="130" y2="135" class="svg-plot-tick"/><line x1="88.4211" x2="88.4211" y1="130" y2="135" class="svg-plot-tick"/><line x1="110.526" x2="110.526" y1="130" y2="135" class="svg-plot-tick"/><line x1="132.632" x2="132.632" y1="130" y2="135" class="svg-plot-tick"/><line x1="154.737" x2="154.737" y1="130" y2="135" class="svg-plot-tick"/><line x1="176.842" x2="176.842" y1="130" y2="135" class="svg-plot-tick"/><line x1="198.947" x2="198.947" y1="130" y2="135" class="svg-plot-tick"/><line x1="221.053" x2="221.053" y1="130" y2="135" class="svg-plot-tick"/><line x1="240" x2="240" y1="130" y2="135" class="svg-plot-tick"/><line x1="0" x2="-5" y1="130" y2="130" class="svg-plot-tick"/><line x1="0" x2="-5" y1="112.016" y2="112.016" class="svg-plot-tick"/><line x1="0" x2="-5" y1="94.0316" y2="94.0316" class="svg-plot-tick"/><line x1="0" x2="-5" y1="76.0474" y2="76.0474" class="svg-plot-tick"/><line x1="0" x2="-5" y1="58.0632" y2="58.0632" class="svg-plot-tick"/><line x1="0" x2="-5" y1="40.0791" y2="40.0791" class="svg-plot-tick"/><line x1="0" x2="-5" y1="22.0949" y2="22.0949" class="svg-plot-tick"/><line x1="0" x2="-5" y1="4.11067" y2="4.11067" class="svg-plot-tick"/><line x1="0" x2="-5" y1="0" y2="0" class="svg-plot-tick"/><text class="svg-plot-label svg-plot-t" x="0" y="0" transform="rotate(-90) translate(-64 -37.7)">Y</text><text class="svg-plot-value" style="text-anchor:end" x="-9" y="-1">5.1</text><text class="svg-plot-value" style="text-anchor:end" x="-9" y="3.11067">4.94</text><text class="svg-plot-value" style="text-anchor:end" x="-9" y="21.0949">4.24</text><text class="svg-plot-value" style="text-anchor:end" x="-9" y="39.0791">3.54</text><text class="svg-plot-value" style="text-anchor:end" x="-9" y="57.0632">2.84</text><text class="svg-plot-value" style="text-anchor:end" x="-9" y="75.0474">2.14</text><text class="svg-plot-value" style="text-anchor:end" x="-9" y="93.0316">1.44</text><text class="svg-plot-value" style="text-anchor:end" x="-9" y="111.016">0.74</text><text class="svg-plot-value" style="text-anchor:end" x="-9" y="129">0.04</text><text class="svg-plot-label svg-plot-t" x="120" y="160">X</text><text class="svg-plot-value" x="240" y="144">2.6</text><text class="svg-plot-value" x="221.053" y="144">2</text><text class="svg-plot-value" x="198.947" y="144">1.3</text><text class="svg-plot-value" x="176.842" y="144">0.6</text><text class="svg-plot-value" x="154.737" y="144">-0.1</text><text class="svg-plot-value" x="132.632" y="144">-0.8</text><text class="svg-plot-value" x="110.526" y="144">-1.5</text><text class="svg-plot-value" x="88.4211" y="144">-2.2</text><text class="svg-plot-value" x="66.3158" y="144">-2.9</text><text class="svg-plot-value" x="44.2105" y="144">-3.6</text><text class="svg-plot-value" x="22.1053" y="144">-4.3</text><text class="svg-plot-value" x="0" y="144">-5</text><text class="svg-plot-value" x="157.895" y="144">0</text><use href="#svg-plot-marker1" class="svg-plot-f1 svg-plot-s1" transform="translate(170.526 129.486)"/><use href="#svg-plot-marker1" class="svg-plot-f1 svg-plot-s1" transform="translate(205.263 129.743)"/><use href="#svg-plot-marker1" class="svg-plot-f1 svg-plot-s1" transform="translate(214.737 130)"/><use href="#svg-plot-marker1" class="svg-plot-f1 svg-plot-s1" transform="translate(240 129.743)"/><use href="#svg-plot-marker0" class="svg-plot-f0 svg-plot-s0" transform="translate(0 0)"/><use href="#svg-plot-marker0" class="svg-plot-f0 svg-plot-s0" transform="translate(44.2105 3.083)"/><use href="#svg-plot-marker0" class="svg-plot-f0 svg-plot-s0" transform="translate(50.5263 3.85375)"/><use href="#svg-plot-marker0" class="svg-plot-f0 svg-plot-s0" transform="translate(97.8947 2.56917)"/><use href="#svg-plot-marker0" class="svg-plot-f0 svg-plot-s0" transform="translate(138.947 2.56917)"/><use href="#svg-plot-marker0" class="svg-plot-f0 svg-plot-s0" transform="translate(173.684 4.11067)"/></g><defs><g id="svg-plot-marker0" class="svg-plot-marker"><circle cx="0" cy="0" r="1" stroke="none"/></g><g id="svg-plot-marker1" class="svg-plot-marker"><path d="M0 0.9 -0.9 0 0 -0.9 0.9 0Z" fill="#FFFA" stroke-linejoin="miter" stroke-width="0.6"/></g><g id="svg-plot-marker2" class="svg-plot-marker"><rect x="-0.9" y="-0.9" width="1.8" height="1.8" stroke="none"/></g><g id="svg-plot-marker3" class="svg-plot-marker"><circle cx="0" cy="0" fill="#FFFA" r="0.8" stroke-width="0.65"/></g><g id="svg-plot-marker4" class="svg-plot-marker"><path stroke="none" d="M0 -1.25 1.25 0.9 -1.25 0.9Z"/></g><mask id="svg-plot-hatch1"><rect x="-350" y="-350" width="700" height="700" fill="url(#svg-plot-hatch1-pattern)" style="transform:rotate(-50deg)"/></mask><pattern patternUnits="userSpaceOnUse" id="svg-plot-hatch1-pattern" class="svg-plot-hatch" x="0" y="0" width="10" height="3" stroke="#FFF" fill="none"><line x1="-1" x2="11" y1="1.5" y2="1.5"/></pattern><mask id="svg-plot-hatch2"><rect x="-350" y="-350" width="700" height="700" fill="url(#svg-plot-hatch2-pattern)" style="transform:rotate(30deg)"/></mask><pattern patternUnits="userSpaceOnUse" id="svg-plot-hatch2-pattern" class="svg-plot-hatch" x="0" y="0" width="10" height="2.4" stroke="#FFF" fill="none"><line x1="-1" x2="11" y1="1.2" y2="1.2"/></pattern><mask id="svg-plot-hatch3"><rect x="-350" y="-350" width="700" height="700" fill="url(#svg-plot-hatch3-pattern)" style="transform:rotate(8deg)"/><rect x="-350" y="-350" width="700" height="700" fill="url(#svg-plot-hatch3-pattern)" style="transform:rotate(93deg)"/></mask><pattern patternUnits="userSpaceOnUse" id="svg-plot-hatch3-pattern" class="svg-plot-hatch" x="0" y="0" width="10" height="3" stroke="#FFF" fill="none"><line x1="-1" x2="11" y1="1.5" y2="1.5"/></pattern></defs><style>.svg-plot{stroke-linecap:butt;stroke-linejoin:round;}.svg-plot-bg{fill:none;stroke:none;}.svg-plot-axis{stroke:none;fill:#FFFFFFD9;}.svg-plot-legend{stroke:none;fill:#FFFFFFE4;}.svg-plot-line{stroke:blue;fill:none;stroke-width:1.5px;stroke-linejoin:round;}.svg-plot-fill{stroke:none;opacity:0.3;}.svg-plot-major{stroke:#000;stroke-width:1px;stroke-linecap:square;fill:none;}.svg-plot-minor{stroke:#0000004D;stroke-width:0.5px;stroke-dasharray:0.5 1.5;stroke-linecap:round;fill:none;}.svg-plot-tick{stroke:#000;fill:none;stroke-width:1px;stroke-linecap:butt;}.svg-plot-value,.svg-plot-label{font-family:Arial,sans-serif;fill:#000;stroke:#FFFFFF80;stroke-width:2px;paint-order:stroke fill;text-anchor:middle;dominant-baseline:central;alignment-baseline:baseline;}.svg-plot-label{font-size:12px;}.svg-plot-value{font-size:10px;}.svg-plot-hatch{stroke:#FFF;stroke-width:1px;}.svg-plot-marker{transform:scale(3.25);}.svg-plot-s{stroke:#000;}.svg-plot-f,.svg-plot-t{fill:#000;}.svg-plot-s0{stroke:#0073E6}.svg-plot-f0,.svg-plot-t0{fill:#0073E6}.svg-plot-s1{stroke:#CC0000}.svg-plot-f1,.svg-plot-t1{fill:#CC0000}.svg-plot-s2{stroke:#00B300}.svg-plot-f2,.svg-plot-t2{fill:#00B300}.svg-plot-s3{stroke:#806600}.svg-plot-f3,.svg-plot-t3{fill:#806600}.svg-plot-s4{stroke:#E69900}.svg-plot-f4,.svg-plot-t4{fill:#E69900}.svg-plot-s5{stroke:#CC00CC}.svg-plot-f5,.svg-plot-t5{fill:#CC00CC}.svg-plot-d0{stroke-width:1.35px}.svg-plot-d1{stroke-dasharray:1.8 1.8}.svg-plot-d2{stroke-dasharray:4.2 2.4}.svg-plot-d3{stroke-dasharray:7.5 6}.svg-plot-d4{stroke-dasharray:6 1.5 1.5 1.5 1.5 1.5}.svg-plot-d5{stroke-dasharray:15 4.5}.svg-plot-d6{stroke-dasharray:6 3 1.5 3}.svg-plot-h0{opacity:0.1}.svg-plot-h1{mask:url(#svg-plot-hatch1)}.svg-plot-h2{mask:url(#svg-plot-hatch2)}.svg-plot-h3{mask:url(#svg-plot-hatch3)}#svg-plot-hatch2-pattern{stroke-width:0.9px}#svg-plot-hatch3-pattern{stroke-width:0.7px}</style></svg>